# xmcd
#
# Track frame offsets: 
#        150
#        13159
#        26967
#        43909
#        59197
#        73452
#        91740
#        106391
#        126943
#        142827
#        162041
#        178860
#        190269
#        206102
#
# Disc length: 3009 seconds
#
# Revision: 0
# Processed by: cddbd v1.5.2PL0 Copyright (c) Steve Scherf et al.
# Submitted via: ExactAudioCopy v1.3
#
DISCID=d80bbf0e
DTITLE=Николай Арутюнов and Funky Soul - Бронефанк
DYEAR=2013
DGENRE=Funk
TTITLE0=Хлеб и соль
TTITLE1=Немного фанка в холодной стране
TTITLE2=За что вы меня не любите?
TTITLE3=Там хорошо, где нет меня
TTITLE4=Любовь найдети тебя всегда
TTITLE5=Гуляй по небесам
TTITLE6=Бронефанк
TTITLE7=Слишком долго
TTITLE8=Страсти по Шекспиру
TTITLE9=Соул - экспресс
TTITLE10=Позови
TTITLE11=Диван
TTITLE12=Отдай свой голос за меня
TTITLE13=Служба спасения
EXTD=
EXTT0=
EXTT1=
EXTT2=
EXTT3=
EXTT4=
EXTT5=
EXTT6=
EXTT7=
EXTT8=
EXTT9=
EXTT10=
EXTT11=
EXTT12=
EXTT13=
PLAYORDER=
